# xmcd CD database file
#
# Track frame offsets:
#	150
#	17552
#	35847
#	49062
#	64845
#	82882
#	98530
#	109787
#	128112
#	145110
#	160310
#	174132
#
# Disc length: 2660 seconds
#
# Revision: 3
# Processed by: cddbd v1.5.2PL0 Copyright (c) Steve Scherf et al.
# Submitted via: CDex 1.40Release
#
DISCID=910a620c
DTITLE=Tim O'Brien - Oh Boy! O'Boy!
DYEAR=1993
DGENRE=Country
TTITLE0=Church Steeple
TTITLE1=When I Paint My Masterpiece
TTITLE2=Heartbreak Game
TTITLE3=Time To Learn
TTITLE4=Perfect Place To Hide
TTITLE5=Run Mountain
TTITLE6=Good Woman Bad
TTITLE7=Few Are Chosen
TTITLE8=Shadows To Light
TTITLE9=The Farmer's Cursed Wife
TTITLE10=Johnny Don't Get Drunk/Rye Straw
TTITLE11=He Had A Long Chain On
EXTD=YEAR: 1993 ID3G: 2
EXTT0=
EXTT1=
EXTT2=
EXTT3=
EXTT4=
EXTT5=
EXTT6=
EXTT7=
EXTT8=
EXTT9=
EXTT10=
EXTT11=
PLAYORDER=
